<?xml version="1.0" encoding="UTF-8" standalone="no"?>
<!-- Created with Inkscape (http://www.inkscape.org/) -->

<svg
   width="48"
   height="48"
   viewBox="0 0 12.7 12.7"
   version="1.1"
   id="svg1"
   xml:space="preserve"
   xmlns="http://www.w3.org/2000/svg"
   xmlns:svg="http://www.w3.org/2000/svg"><defs
     id="defs1" /><g
     id="layer1"><path
       style="fill:#f6b525;fill-opacity:1;stroke:none;stroke-width:0.168232;stroke-linejoin:round;stroke-opacity:1;paint-order:stroke fill markers"
       d="M 11.301096,45.827823 C 10.627452,45.628603 9.9954014,45.284051 9.5189044,44.856292 8.6981905,44.119522 8.6525368,43.984661 9.068309,43.525238 9.3429264,43.221788 9.3210968,43.207172 8.5901601,43.205119 7.9079756,43.203202 7.7814904,43.136947 7.4330416,42.599005 7.2178746,42.266825 7.0418289,41.921704 7.0418289,41.832071 c 0,-0.08963 -0.2054215,-0.407099 -0.4564896,-0.705478 C 6.1355994,40.59211 6.1251671,40.58934 5.8799897,40.93938 5.5256188,41.445317 5.1201972,41.382356 4.1979385,40.678157 3.4201102,40.084241 3.3904702,40.028468 3.3894113,39.156775 c -0.0012,-0.984994 0.032667,-0.947326 -1.7991038,-2.001097 -1.80398093,-1.037783 -2.10944677,-1.318947 -2.16577967,-1.993484 -0.0515531,-0.617317 -0.0924027,-0.655292 -0.95629773,-0.889013 -0.4963429,-0.134282 -1.5283829,-0.382835 -2.2934211,-0.552342 -1.6074392,-0.356155 -2.3735484,-0.645492 -2.6768774,-1.010982 -0.1776262,-0.214025 -0.049894,-0.500093 0.7350487,-1.646239 0.7111083,-1.038334 1.0183737,-1.686278 1.2217869,-2.576431 l 0.2717555,-1.189233 -0.8190899,-0.836296 c -0.4505014,-0.459964 -1.4637076,-1.270868 -2.25157,-1.802008 -0.7878624,-0.53114 -1.7779018,-1.269762 -2.2000847,-1.641382 -0.4221829,-0.371621 -0.8048771,-0.675675 -0.8504321,-0.675675 -0.04556,0 -0.11627,0.46238 -0.157149,1.027511 -0.08614,1.190856 -0.689048,2.258898 -1.58275,2.803818 -0.739298,0.450772 -1.165532,0.440583 -0.587563,-0.01405 0.562547,-0.442498 0.809638,-1.300474 0.810892,-2.81565 0.0012,-1.448568 -0.360644,-2.445721 -1.469767,-4.050316 l -0.837192,-1.211187 0.143167,1.217106 c 0.251685,2.139638 0.185365,2.916449 -0.32306,3.78401 -0.556844,0.950182 -1.201372,1.577434 -2.076326,2.020669 -0.358612,0.181665 -0.652021,0.309453 -0.652021,0.28397 0,-0.02548 0.117363,-0.378977 0.260808,-0.785543 0.143445,-0.406566 0.260809,-1.009214 0.260809,-1.33922 V 22.6637 l -0.610825,0.800225 c -1.166198,1.5278 -2.526594,2.498178 -3.909856,2.78892 -0.334704,0.07035 -1.242027,0.508311 -2.016274,0.973247 -1.285476,0.771933 -1.459013,0.83063 -1.998384,0.675941 -0.324864,-0.09317 -0.840849,-0.1694 -1.146634,-0.1694 -0.305784,0 -0.604505,-0.07853 -0.663825,-0.174511 -0.05932,-0.09598 -0.318225,-0.126325 -0.575346,-0.06743 -0.372354,0.08529 -0.308263,0.003 0.314932,-0.404347 1.499532,-0.980156 1.643183,-1.576182 0.20413,-0.846958 -1.009829,0.511718 -2.399557,0.861273 -2.798139,0.703807 -0.202062,-0.07983 -0.0782,-0.209843 0.467544,-0.490777 0.704056,-0.362426 4.290765,-3.742205 4.13579,-3.897181 -0.04024,-0.04024 -0.577623,0.286816 -1.194189,0.72679 -1.006468,0.7182 -2.506397,1.426325 -2.671494,1.261228 -0.03486,-0.03486 0.249469,-0.598775 0.631854,-1.253133 0.612224,-1.047671 0.794801,-1.226879 1.528965,-1.500746 0.758476,-0.282937 2.816393,-2.056068 2.384024,-2.05411 -0.09203,4.17e-4 -0.706338,0.189482 -1.365119,0.420145 -0.65878,0.230665 -1.331123,0.367248 -1.494095,0.30352 -0.311126,-0.121661 -2.383176,-2.289274 -2.188349,-2.289274 0.06192,0 0.442005,0.173722 0.844622,0.386049 0.911392,0.480638 2.885726,0.541689 3.669743,0.113477 l 0.5035,-0.275 -1.043239,-0.118029 c -0.573781,-0.06492 -1.191569,-0.22721 -1.372861,-0.360654 -0.370618,-0.272799 -0.414031,-0.245359 1.061356,-0.670856 l 0.869361,-0.250721 -0.579109,-0.132161 c -0.646267,-0.147488 -0.442074,-0.422781 0.318301,-0.429135 0.239074,-0.002 0.747651,-0.09372 1.13017,-0.203821 l 0.695489,-0.200189 -1.530652,-0.227716 c -1.006685,-0.149764 -1.835929,-0.393381 -2.42245,-0.711671 l -0.891797,-0.483955 1.813896,-0.08803 c 1.780446,-0.08641 1.84884,-0.105648 3.708699,-1.043234 l 1.894802,-0.955201 2.191197,0.008 2.191198,0.008 2.434212,0.931507 c 3.105497,1.188389 3.759509,1.263886 4.6945528,0.541924 2.0324422,-1.569279 3.0903857,-2.059483 5.4972394,-2.547174 1.6338086,-0.331051 3.66980998,-0.257468 5.092209,0.18404 1.1411571,0.35421 5.3195592,0.958573 6.6354458,0.959749 1.8029082,0.0016 3.034481,-0.310415 3.846899,-0.974633 0.400802,-0.327689 1.144106,-0.789172 1.651787,-1.025519 0.507679,-0.236347 0.7839,-0.430486 0.61382,-0.43142 -0.170079,-9.34e-4 -0.774228,0.233029 -1.342552,0.519919 -0.628446,0.317238 -1.290732,0.518043 -1.690296,0.512497 l -0.65698,-0.0091 0.434681,-0.291678 c 0.239074,-0.160422 0.950514,-0.834558 1.580979,-1.4980781 1.26816,-1.3346538 0.941085,-1.2374591 3.809062,-1.1319154 1.323184,0.048694 1.572196,0.00554 2.37844,-0.4121397 0.495289,-0.2565901 0.937573,-0.5266975 0.982853,-0.6002382 0.04528,-0.073541 -0.494721,-0.1337106 -1.200006,-0.1337106 -1.098012,0 -1.338564,-0.056234 -1.673514,-0.3912127 l -0.391176,-0.3912127 0.690659,-0.00611 c 1.557724,-0.013776 4.602786,-1.052159 4.602786,-1.5695752 0,-0.3754891 0.862897,-1.0324017 1.356128,-1.0324017 0.276413,0 0.636745,-0.1482588 0.800732,-0.329464 0.522325,-0.5771627 1.099671,-0.5554746 1.921969,0.072199 0.410318,0.3132032 0.922103,0.6636901 1.137299,0.7788596 0.466637,0.2497363 2.766182,1.043256 3.023257,1.043256 0.09919,0 -0.203204,-0.3894097 -0.671992,-0.8653549 -0.925341,-0.9394675 -0.963979,-1.4437167 -0.04481,-0.5847954 0.732423,0.6844149 1.602793,1.276278 1.876844,1.276278 0.141596,0 0.10767,-0.1213022 -0.09726,-0.3477446 -0.428548,-0.4735405 -0.267288,-0.4396187 0.954368,0.2007564 1.001934,0.5252005 1.42858,0.6060791 3.453296,0.6546362 0.422704,0.010137 0.749395,0.1808909 1.191025,0.6225221 0.334704,0.3347042 0.643018,0.6085531 0.685142,0.6085531 0.04212,0 0.288588,-0.1565018 0.547698,-0.3477819 0.504894,-0.3727229 1.517137,-0.7216372 1.664893,-0.5738796 0.04939,0.049385 0.01994,0.2182796 -0.06542,0.3753218 -0.651335,1.1981771 -0.725434,1.5454363 -0.445343,2.0870732 0.150301,0.2906478 0.4102,0.60508 0.577554,0.6987383 0.271381,0.1518769 0.254512,0.1892094 -0.156028,0.3453 -0.501135,0.1905348 -0.53575,0.3274189 -0.831051,3.286512 -0.151896,1.522083 0.01723,4.8595 0.351577,6.937775 l 0.200541,1.246549 -0.586677,0.70638 c -0.655528,0.789278 -1.191555,0.903305 -2.081917,0.442881 -0.288008,-0.148934 -0.679121,-0.219794 -0.873187,-0.1582 -0.527403,0.167391 -0.989911,-0.363313 -1.121885,-1.287312 -0.167234,-1.170856 -1.207119,-3.139061 -2.367546,-4.481087 -0.605483,-0.700234 -1.0101,-1.329894 -1.0101,-1.571902 0,-0.323391 -0.09406,-0.40373 -0.472708,-0.40373 -0.364927,0 -0.816016,0.349905 -1.97841,1.534637 -1.300611,1.325605 -1.547449,1.674931 -1.812192,2.564617 -0.524665,1.763164 -0.590593,2.368254 -0.388737,3.567879 0.19233,1.14301 0.19071,1.151605 -0.475016,2.521148 -0.367401,0.755825 -0.735859,1.514098 -0.818796,1.685051 -0.116121,0.239351 -0.02192,0.419263 0.409647,0.782425 1.644098,1.383485 4.104478,2.803415 5.320338,3.070462 0.403467,0.08862 0.720377,0.348282 1.101983,0.902929 0.506871,0.736711 0.539963,0.887756 0.615914,2.811312 0.06534,1.65475 0.180444,2.341106 0.61898,3.690811 0.534532,1.645159 0.536318,1.663097 0.229859,2.308911 -0.169873,0.357981 -0.437164,1.666265 -0.593981,2.907302 -0.284208,2.249189 -0.286315,2.255593 -0.657159,1.995844 -0.20462,-0.143322 -0.770493,-0.761332 -1.257497,-1.373357 -1.052565,-1.322779 -1.175773,-2.092998 -0.450778,-2.817994 0.52425,-0.524248 0.527169,-0.558822 0.08677,-1.027604 -0.330095,-0.35137 -0.337836,-0.463247 -0.151146,-2.184612 0.260497,-2.401912 0.03584,-3.579883 -0.866107,-4.541357 -0.607704,-0.647814 -0.754948,-0.705174 -3.503261,-1.364747 -1.577891,-0.378682 -3.055049,-0.769943 -3.282575,-0.869467 -0.227524,-0.09953 -0.447814,-0.146823 -0.489533,-0.105105 -0.153988,0.153989 0.999323,2.186956 1.699828,2.996326 0.7078,0.8178 0.721313,0.857415 0.631256,1.850591 -0.111563,1.230328 -0.267075,1.437198 -1.311255,1.744305 -1.021021,0.300296 -3.9396,2.20766 -4.654186,3.041628 l -0.538507,0.628474 -0.852472,-0.360816 c -0.532332,-0.225316 -1.440133,-0.401602 -2.41732,-0.469423 -2.767961,-0.192106 -3.014256,-0.378801 -2.339249,-1.773181 0.425229,-0.878406 0.842519,-1.113588 1.975875,-1.113588 0.754637,0 1.319671,0.372456 1.319671,0.869892 0,0.153443 0.14075,0.101731 0.408981,-0.150259 0.333854,-0.313639 0.534009,-0.364224 1.089625,-0.275377 0.516721,0.08263 0.914885,0.0052 1.65327,-0.321304 1.134449,-0.501706 2.585911,-1.813549 2.585911,-2.337165 0,-0.220241 -0.482384,-0.825671 -1.23593,-1.551188 -0.67976,-0.654478 -1.864672,-1.913703 -2.633138,-2.798279 -0.768463,-0.884575 -1.495023,-1.608319 -1.614575,-1.608319 -0.119552,0 -0.453073,-0.220181 -0.741158,-0.489294 C 14.559619,27.631678 14.538007,27.627675 13.795597,27.875801 12.675445,28.250174 8.9994347,28.23278 7.5976604,27.846474 6.9948851,27.680358 5.5244434,27.068568 4.3300102,26.486937 3.1355769,25.905308 2.1164764,25.471265 2.0653423,25.522399 c -0.051134,0.05113 0.076335,1.058372 0.2832676,2.238306 0.2069307,1.179934 0.4449949,2.989423 0.5290309,4.021089 0.084036,1.031665 0.188095,1.932873 0.2312397,2.002684 0.043146,0.06981 0.6327405,0.278771 1.3102097,0.464354 l 1.2317601,0.337425 0.0035,1.224274 0.00351,1.224273 0.9674865,0.999766 c 0.5321188,0.549871 1.0195577,0.997943 1.0831984,0.995718 0.063641,-0.0022 0.5619919,0.211719 1.1074467,0.475433 0.7952381,0.384478 1.0536141,0.617455 1.3040421,1.175853 0.171769,0.383006 0.688891,1.149592 1.149162,1.703526 0.777813,0.936096 1.076682,1.627167 1.464694,3.386788 0.103535,0.469528 -0.01819,0.47428 -1.432793,0.05594 z M -11.311196,16.89029 c 0.159871,-0.368948 0.254241,-0.707248 0.209711,-0.751778 -0.141031,-0.141032 -1.109737,0.441352 -1.22238,0.734893 -0.172521,0.449584 -0.125497,1.241501 0.103574,1.744259 l 0.211582,0.464369 0.203418,-0.760464 c 0.11188,-0.418256 0.334223,-1.062331 0.494095,-1.431279 z"
       id="path2"
       transform="scale(0.26458333)" /></g></svg>
